<?xml version="1.0" encoding="utf-8"?>
<!-- Generator: Adobe Illustrator 16.0.0, SVG Export Plug-In . SVG Version: 6.00 Build 0)  -->
<!DOCTYPE svg PUBLIC "-//W3C//DTD SVG 1.1//EN" "http://www.w3.org/Graphics/SVG/1.1/DTD/svg11.dtd">
<svg version="1.1" id="Layer_1" xmlns="http://www.w3.org/2000/svg" xmlns:xlink="http://www.w3.org/1999/xlink" x="0px" y="0px"
	 width="37.5px" height="37.5px" viewBox="0 0 37.5 37.5" enable-background="new 0 0 37.5 37.5" xml:space="preserve">
<path fill="#DB0714" d="M37,16.564C36.519,12.024,34.396,7.969,31.226,5c-3.299-3.087-7.728-5-12.672-5C13.66,0,9.223,1.907,5.909,5
	C2.281,8.386,0,13.195,0,18.549C0,25,3.289,30.675,8.279,34c2.942,1.961,6.473,3.107,10.274,3.107S25.886,35.961,28.828,34
	c4.471-2.979,7.574-7.844,8.172-13.463c0.069-0.653,0.109-1.315,0.109-1.987C37.109,17.878,37.069,17.217,37,16.564z"/>
<path fill="#FFFFFF" d="M18.604,22.442l-0.047,0.039l-0.045-0.039L13.35,5.089L6.668,27h1.253c0,0,0.843-3.703,2.216-5.989
	c0.743-1.245,1.9-2.192,3.438-2.169c1.078,0.026,2.011,0.656,3.188,2.305c0.704,0.985,1.787,3.513,1.787,3.513
	s1.092-2.502,1.795-3.487c1.178-1.649,2.109-2.242,3.193-2.268c1.535-0.023,2.693,0.859,3.428,2.104
	C28.338,23.295,29.191,27,29.191,27h1.252L23.758,5.089L18.604,22.442z"/>
</svg>
